# xmcd
#
# Track frame offsets:
#	150
#	15565
#	29191
#	45052
#	58378
#	72069
#	86154
#	100755
#	115967
#	131617
#	147388
#	159978
#	172607
#	188440
#	205281
#	221960
#	234106
#	248413
#	261989
#
# Disc length: 3701 seconds
#
# Revision: 1
# Processed by: cddbd v1.5.2PL0 Copyright (c) Steve Scherf et al.
# Submitted via: audiograbber 1.82.02
#
DISCID=020e7313
DTITLE=Various Artist - Country Radio - October 2018
DYEAR=2018
DGENRE=Country
TTITLE0=Maren Morris - Rich (Radio Edit)
TTITLE1=Luke Combs - She Got The Best Of Me (Album Ver)
TTITLE2=Rachel Wammack - Damage
TTITLE3=Kane Brown - Lose It
TTITLE4=Jake Owen - Down To The Honkytonk (Clean Edit)
TTITLE5=Tenille Arts - I Hate This
TTITLE6=John Berry - Beautifully Broken
TTITLE7=Runaway June - Buy My Own Drinks
TTITLE8=Cassadee Pope - One More Red Light
TTITLE9=Cody Johnson - On My Way To You
TTITLE10=LoCash - Feels Like A Party
TTITLE11=Southern Halo - I Think Too Much
TTITLE12=Dan and Shay - Speechless
TTITLE13=Jessie Chris - Rome
TTITLE14=Kenny Chesney (Ft. Mindy Smith) - Better Boat
TTITLE15=Arista Manning - Lucky Enough
TTITLE16=Daniel E. Johnson - American Hearts
TTITLE17=Lindsay Ell - Champagne
TTITLE18=Keith Urban - Never Comin' Down
EXTD=
EXTT0=
EXTT1=
EXTT2=
EXTT3=
EXTT4=
EXTT5=
EXTT6=
EXTT7=
EXTT8=
EXTT9=
EXTT10=
EXTT11=
EXTT12=
EXTT13=
EXTT14=
EXTT15=
EXTT16=
EXTT17=
EXTT18=
PLAYORDER=
